<svg width="901" height="191" viewBox="0 0 901 191" fill="none" xmlns="http://www.w3.org/2000/svg">
<g clip-path="url(#clip0_24_26)">
<path fill-rule="evenodd" clip-rule="evenodd" d="M736.543 53.3347C672.1 55.6101 586.506 71.9037 451.804 109.39L450.196 103.61C584.994 66.0962 671.15 49.6398 736.332 47.3384C801.666 45.0316 845.823 56.9515 896.549 75.882L894.451 81.5033C844.177 62.7411 800.834 51.0647 736.543 53.3347Z" fill="#31C2CB"/>
<path fill-rule="evenodd" clip-rule="evenodd" d="M253.317 88.3134C317.144 104.362 379.624 120.072 449.834 104.075L451.166 109.925C379.474 126.26 315.579 110.177 251.895 94.1466C244.652 92.3233 237.411 90.5007 230.162 88.7266C159.049 71.3225 86.7147 58.4021 1.13215 93.2783L-1.13214 87.722C86.2853 52.098 160.201 65.4276 231.588 82.8986C238.857 84.6776 246.096 86.4976 253.317 88.3134Z" fill="#31C2CB"/>
<path d="M333.293 110.85C317.693 110.85 304.293 105.55 293.093 94.95C281.893 84.25 276.293 71.1 276.293 55.5C276.293 39.8 281.193 26.65 290.993 16.05C300.793 5.35 313.343 0 328.643 0C340.643 0 352.793 2 365.093 6L363.143 12C351.143 8.4 339.643 6.6 328.643 6.6C315.543 6.6 304.843 11.3 296.543 20.7C288.243 30.1 284.093 41.6 284.093 55.2C284.093 68.8 288.893 80.4 298.493 90C308.193 99.5 319.793 104.25 333.293 104.25C345.093 104.25 354.1 101.55 380.1 97.2V102.6C355.6 108.05 361.7 106.85 355.6 108.05C349.5 109.25 339.093 110.85 333.293 110.85Z" fill="black"/>
<path d="M402.911 94.8C393.011 84.1 388.061 70.95 388.061 55.35C388.061 39.75 393.011 26.65 402.911 16.05C412.911 5.35 425.511 0 440.711 0C455.911 0 468.511 5.35 478.511 16.05C488.511 26.65 493.511 39.75 493.511 55.35C493.511 70.95 488.511 84.1 478.511 94.8C468.511 105.5 455.911 110.85 440.711 110.85C425.511 110.85 412.911 105.5 402.911 94.8ZM408.311 20.7C400.011 30 395.861 41.55 395.861 55.35C395.861 69.15 400.011 80.75 408.311 90.15C416.711 99.55 427.511 104.25 440.711 104.25C454.011 104.25 464.811 99.55 473.111 90.15C481.511 80.75 485.711 69.15 485.711 55.35C485.711 41.55 481.511 30 473.111 20.7C464.811 11.3 454.011 6.6 440.711 6.6C427.411 6.6 416.611 11.3 408.311 20.7Z" fill="black"/>
<path d="M573.133 11.25C565.833 8.15 558.583 6.6 551.383 6.6C536.783 6.6 529.483 12 529.483 22.8C529.483 27.5 531.133 31.9 534.433 36C537.733 40 541.733 43.6 546.433 46.8C551.133 49.9 555.833 53.1 560.533 56.4C565.233 59.7 569.233 63.65 572.533 68.25C575.833 72.85 577.483 77.85 577.483 83.25C577.483 92.35 574.433 99.25 568.333 103.95C562.233 108.55 553.783 110.85 542.983 110.85C532.283 110.85 523.133 108.1 515.533 102.6L519.133 97.2C526.333 101.9 534.233 104.25 542.833 104.25C551.433 104.25 558.033 102.55 562.633 99.15C567.233 95.65 569.533 90.65 569.533 84.15C569.533 79.65 567.883 75.4 564.583 71.4C561.283 67.3 557.283 63.65 552.583 60.45C547.883 57.15 543.183 53.8 538.483 50.4C533.783 47 529.783 42.95 526.483 38.25C523.183 33.55 521.533 28.5 521.533 23.1C521.533 16 524.133 10.4 529.333 6.3C534.633 2.1 541.733 0 550.633 0C559.633 0 567.983 1.8 575.683 5.4L573.133 11.25Z" fill="black"/>
<path d="M659.514 110.85C643.914 110.85 630.514 105.55 619.314 94.95C608.114 84.25 602.514 71.1 602.514 55.5C602.514 39.8 607.414 26.65 617.214 16.05C627.014 5.35 639.564 0 654.864 0C666.864 0 679.014 2 691.314 6L689.364 12C677.364 8.4 665.864 6.6 654.864 6.6C641.764 6.6 631.064 11.3 622.764 20.7C614.464 30.1 610.314 41.6 610.314 55.2C610.314 68.8 615.114 80.4 624.714 90C634.414 99.5 646.014 104.25 659.514 104.25C671.314 104.25 681.514 102.45 690.114 98.85L692.364 103.95C688.564 106.15 683.564 107.85 677.364 109.05C671.264 110.25 665.314 110.85 659.514 110.85Z" fill="black"/>
<path d="M809.405 94.8C799.505 84.1 794.555 70.95 794.555 55.35C794.555 39.75 799.505 26.65 809.405 16.05C819.405 5.35 832.005 0 847.205 0C862.405 0 875.005 5.35 885.005 16.05C895.005 26.65 900.005 39.75 900.005 55.35C900.005 70.95 895.005 84.1 885.005 94.8C875.005 105.5 862.405 110.85 847.205 110.85C832.005 110.85 819.405 105.5 809.405 94.8ZM814.805 20.7C806.505 30 802.355 41.55 802.355 55.35C802.355 69.15 806.505 80.75 814.805 90.15C823.205 99.55 834.005 104.25 847.205 104.25C860.505 104.25 871.305 99.55 879.605 90.15C888.005 80.75 892.205 69.15 892.205 55.35C892.205 41.55 888.005 30 879.605 20.7C871.305 11.3 860.505 6.6 847.205 6.6C833.905 6.6 823.105 11.3 814.805 20.7Z" fill="black"/>
<path d="M92.65 65.7L74.65 109.05H67L112.15 1.05H116.35L161.65 109.05H153.55L135.55 65.7L119.05 25.95C115.55 18.35 113.8 14.05 113.8 13.05C113.7 13.15 113.5 13.75 113.2 14.85C111.8 19.15 110.45 22.8 109.15 25.8L92.65 65.7Z" fill="black"/>
<path d="M720.582 109.05V1.8H770.382V8.1H727.782V53.7V102.75H772.032V109.05H720.582Z" fill="black"/>
<path d="M183.863 109.05V2.25001C193.363 1.55 201.313 1.2 207.713 1.2C217.913 1.2 226.313 3.85 232.913 9.15001C239.513 14.35 242.813 21.75 242.813 31.35C242.813 37.85 240.913 43.9 237.113 49.5C233.313 55.1 229.063 59.55 224.363 62.85C228.063 67.95 232.613 74.05 238.013 81.15C243.513 88.15 247.063 92.55 248.663 94.35C254.763 100.85 261.663 104.55 269.363 105.45L269.213 110.25C263.113 110.15 258.163 109.25 254.363 107.55C250.563 105.75 246.913 103.05 243.413 99.45C240.013 95.85 227.113 78.65 213.413 59.85C217.813 59.85 222.513 56.95 227.513 51.15C232.513 45.35 235.013 38.65 235.013 31.05C235.013 23.35 232.413 17.55 227.213 13.65C222.113 9.65 215.313 7.65 206.813 7.65C202.313 7.65 197.063 7.85 191.063 8.25V59.1V109.05H183.863Z" fill="black"/>
<path d="M79.48 178.48C75.9333 178.48 73.24 177.307 71.4 174.96C69.5867 172.587 68.68 169.027 68.68 164.28C68.68 159.507 69.5867 155.947 71.4 153.6C73.24 151.253 75.9333 150.08 79.48 150.08C81.3467 150.08 83 150.467 84.44 151.24C85.88 151.987 87 153.133 87.8 154.68C88.6267 156.2 89.04 158.133 89.04 160.48H85.44C85.44 158.08 84.8933 156.293 83.8 155.12C82.7333 153.92 81.2933 153.32 79.48 153.32C77.08 153.32 75.2933 154.147 74.12 155.8C72.9467 157.453 72.36 159.947 72.36 163.28V165.28C72.36 168.613 72.9467 171.107 74.12 172.76C75.2933 174.413 77.08 175.24 79.48 175.24C81.32 175.24 82.7867 174.653 83.88 173.48C85 172.307 85.56 170.533 85.56 168.16H89.04C89.04 170.507 88.6267 172.453 87.8 174C87 175.52 85.88 176.653 84.44 177.4C83 178.12 81.3467 178.48 79.48 178.48ZM97.5919 178V156.96H100.872V178H97.5919ZM97.5119 152.88V149.08H100.912V152.88H97.5119ZM110.173 178V156.96H112.653L113.093 159.72H113.333C113.6 158.92 114.013 158.187 114.573 157.52C115.133 156.827 115.907 156.48 116.893 156.48C117.347 156.48 117.72 156.533 118.013 156.64C118.307 156.747 118.453 156.8 118.453 156.8V160.2H117.373C116.68 160.2 116.027 160.36 115.413 160.68C114.827 160.973 114.347 161.48 113.973 162.2C113.627 162.92 113.453 163.907 113.453 165.16V178H110.173ZM130.311 178.48C128.738 178.48 127.471 178.013 126.511 177.08C125.578 176.12 125.111 174.467 125.111 172.12V156.96H128.391V171.88C128.391 173.347 128.658 174.333 129.191 174.84C129.751 175.32 130.471 175.56 131.351 175.56C132.391 175.56 133.298 175.053 134.071 174.04C134.871 173.027 135.271 171.613 135.271 169.8V156.96H138.551V178H136.071L135.631 175.56H135.391C134.804 176.6 134.071 177.347 133.191 177.8C132.311 178.253 131.351 178.48 130.311 178.48ZM150.673 185.28C148.966 185.28 147.673 184.787 146.793 183.8C145.913 182.84 145.473 181.667 145.473 180.28C145.473 179.267 145.713 178.347 146.193 177.52C146.7 176.693 147.366 176.12 148.193 175.8C147.66 175.453 147.233 175 146.913 174.44C146.62 173.853 146.473 173.253 146.473 172.64C146.473 171.787 146.74 171.053 147.273 170.44C147.833 169.8 148.553 169.32 149.433 169C148.686 168.387 148.086 167.627 147.633 166.72C147.206 165.787 146.993 164.733 146.993 163.56C146.993 161.347 147.606 159.613 148.833 158.36C150.06 157.107 151.74 156.48 153.873 156.48C154.966 156.48 155.98 156.733 156.913 157.24C157.846 156.733 158.486 156.16 158.833 155.52C159.18 154.88 159.406 154.227 159.513 153.56H162.393C162.393 154.813 162.073 155.893 161.433 156.8C160.82 157.707 159.966 158.307 158.873 158.6C159.46 159.187 159.913 159.907 160.233 160.76C160.58 161.587 160.753 162.52 160.753 163.56C160.753 165.747 160.14 167.467 158.913 168.72C157.713 169.973 156.086 170.613 154.033 170.64H151.833C151.3 170.64 150.846 170.827 150.473 171.2C150.1 171.547 149.913 171.987 149.913 172.52C149.913 173.027 150.1 173.467 150.473 173.84C150.873 174.213 151.326 174.4 151.833 174.4H157.833C159.353 174.4 160.553 174.893 161.433 175.88C162.34 176.84 162.793 177.987 162.793 179.32C162.793 180.413 162.553 181.413 162.073 182.32C161.62 183.227 160.926 183.947 159.993 184.48C159.086 185.013 157.966 185.28 156.633 185.28H150.673ZM151.193 182.44H156.993C157.686 182.44 158.273 182.187 158.753 181.68C159.233 181.2 159.473 180.627 159.473 179.96C159.473 179.267 159.273 178.68 158.873 178.2C158.473 177.747 157.846 177.52 156.993 177.52H151.193C150.366 177.52 149.753 177.747 149.353 178.2C148.953 178.68 148.753 179.267 148.753 179.96C148.753 180.627 148.953 181.2 149.353 181.68C149.753 182.187 150.366 182.44 151.193 182.44ZM153.833 167.92C155.006 167.92 155.9 167.533 156.513 166.76C157.126 165.96 157.433 164.893 157.433 163.56C157.433 162.147 157.126 161.067 156.513 160.32C155.9 159.573 155.006 159.2 153.833 159.2C152.686 159.2 151.806 159.6 151.193 160.4C150.58 161.173 150.273 162.227 150.273 163.56C150.273 164.947 150.58 166.027 151.193 166.8C151.806 167.547 152.686 167.92 153.833 167.92ZM170.115 178V156.96H173.395V178H170.115ZM169.435 154.36L172.875 149.08H176.475L176.515 149.2L172.195 154.36H169.435ZM187.177 178.48C186.67 178.48 186.097 178.4 185.457 178.24C184.817 178.107 184.204 177.84 183.617 177.44C183.057 177.013 182.59 176.413 182.217 175.64C181.844 174.867 181.657 173.84 181.657 172.56C181.657 170.613 182.11 169.147 183.017 168.16C183.95 167.147 185.217 166.453 186.817 166.08C188.444 165.707 190.27 165.52 192.297 165.52V162.8C192.297 161.787 192.07 160.973 191.617 160.36C191.19 159.72 190.31 159.4 188.977 159.4C187.75 159.4 186.897 159.76 186.417 160.48C185.964 161.173 185.737 161.92 185.737 162.72V163.2H182.497C182.47 163.067 182.457 162.933 182.457 162.8C182.457 162.667 182.457 162.507 182.457 162.32C182.457 160.4 183.084 158.947 184.337 157.96C185.617 156.973 187.244 156.48 189.217 156.48C191.35 156.48 192.937 157 193.977 158.04C195.044 159.053 195.577 160.493 195.577 162.36V174.16C195.577 174.667 195.697 175.027 195.937 175.24C196.177 175.453 196.43 175.56 196.697 175.56H197.977V177.84C197.79 177.947 197.51 178.053 197.137 178.16C196.79 178.267 196.35 178.32 195.817 178.32C194.964 178.32 194.244 178.08 193.657 177.6C193.097 177.12 192.71 176.493 192.497 175.72H192.297C191.764 176.573 191.044 177.253 190.137 177.76C189.257 178.24 188.27 178.48 187.177 178.48ZM187.937 175.56C188.63 175.56 189.31 175.373 189.977 175C190.644 174.6 191.19 174.013 191.617 173.24C192.07 172.467 192.297 171.507 192.297 170.36V168.44C190.857 168.44 189.59 168.547 188.497 168.76C187.43 168.947 186.59 169.32 185.977 169.88C185.39 170.44 185.097 171.267 185.097 172.36C185.097 173.56 185.337 174.4 185.817 174.88C186.324 175.333 187.03 175.56 187.937 175.56ZM218.441 178V150.56H235.361V153.76H221.961V162.36H233.601V165.56H221.961V174.8H235.601V178H218.441ZM243.916 178V156.96H246.396L246.836 159.4H247.076C247.662 158.36 248.396 157.613 249.276 157.16C250.156 156.707 251.116 156.48 252.156 156.48C253.729 156.48 254.982 156.96 255.916 157.92C256.876 158.853 257.356 160.493 257.356 162.84V178H254.076V163.08C254.076 161.613 253.796 160.64 253.236 160.16C252.702 159.653 251.996 159.4 251.116 159.4C250.076 159.4 249.156 159.907 248.356 160.92C247.582 161.933 247.196 163.347 247.196 165.16V178H243.916ZM271.878 178.48C269.878 178.48 268.291 177.613 267.118 175.88C265.944 174.12 265.358 171.307 265.358 167.44C265.358 164.88 265.638 162.8 266.198 161.2C266.758 159.573 267.518 158.387 268.478 157.64C269.438 156.867 270.491 156.48 271.638 156.48C272.651 156.48 273.558 156.707 274.358 157.16C275.184 157.587 275.771 158.187 276.118 158.96H276.318V149.08H279.598V178H277.118L276.678 175.56H276.478C275.971 176.52 275.318 177.253 274.518 177.76C273.718 178.24 272.838 178.48 271.878 178.48ZM272.558 175.56C273.811 175.56 274.744 174.947 275.358 173.72C275.998 172.493 276.318 170.667 276.318 168.24V166.88C276.318 164.4 275.998 162.533 275.358 161.28C274.744 160.027 273.811 159.4 272.558 159.4C271.304 159.4 270.358 159.973 269.718 161.12C269.104 162.24 268.798 164.107 268.798 166.72V168.24C268.798 170.853 269.104 172.733 269.718 173.88C270.358 175 271.304 175.56 272.558 175.56ZM295.12 178.48C292.667 178.48 290.8 177.6 289.52 175.84C288.24 174.053 287.6 171.267 287.6 167.48C287.6 163.693 288.24 160.92 289.52 159.16C290.8 157.373 292.667 156.48 295.12 156.48C297.573 156.48 299.44 157.373 300.72 159.16C302 160.92 302.64 163.693 302.64 167.48C302.64 171.267 302 174.053 300.72 175.84C299.44 177.6 297.573 178.48 295.12 178.48ZM295.12 175.56C296.48 175.56 297.493 174.947 298.16 173.72C298.853 172.493 299.2 170.667 299.2 168.24V166.72C299.2 164.293 298.853 162.467 298.16 161.24C297.493 160.013 296.48 159.4 295.12 159.4C293.76 159.4 292.733 160.013 292.04 161.24C291.373 162.467 291.04 164.293 291.04 166.72V168.24C291.04 170.667 291.373 172.493 292.04 173.72C292.733 174.947 293.76 175.56 295.12 175.56ZM316.322 178.48C314.722 178.48 313.416 178.187 312.402 177.6C311.416 176.987 310.696 176.213 310.242 175.28C309.789 174.347 309.562 173.36 309.562 172.32C309.562 172.027 309.562 171.813 309.562 171.68C309.589 171.547 309.602 171.467 309.602 171.44H313.042V171.84C313.042 173.147 313.376 174.107 314.042 174.72C314.709 175.307 315.522 175.6 316.482 175.6C317.336 175.6 318.069 175.333 318.682 174.8C319.322 174.267 319.642 173.493 319.642 172.48C319.642 171.6 319.402 170.92 318.922 170.44C318.469 169.933 317.882 169.533 317.162 169.24C316.442 168.92 315.669 168.627 314.842 168.36C314.016 168.067 313.242 167.707 312.522 167.28C311.802 166.853 311.202 166.267 310.722 165.52C310.269 164.747 310.042 163.733 310.042 162.48C310.042 161.227 310.309 160.16 310.842 159.28C311.376 158.373 312.136 157.68 313.122 157.2C314.109 156.72 315.269 156.48 316.602 156.48C317.909 156.48 319.002 156.747 319.882 157.28C320.789 157.787 321.469 158.48 321.922 159.36C322.402 160.24 322.642 161.2 322.642 162.24C322.642 162.373 322.629 162.52 322.602 162.68C322.602 162.84 322.602 162.947 322.602 163H319.202V162.64C319.202 161.813 318.989 161.067 318.562 160.4C318.162 159.707 317.402 159.36 316.282 159.36C315.509 159.36 314.909 159.52 314.482 159.84C314.082 160.16 313.802 160.547 313.642 161C313.509 161.427 313.442 161.84 313.442 162.24C313.442 163.013 313.669 163.613 314.122 164.04C314.602 164.467 315.202 164.813 315.922 165.08C316.642 165.347 317.416 165.627 318.242 165.92C319.069 166.187 319.842 166.547 320.562 167C321.282 167.453 321.869 168.08 322.322 168.88C322.802 169.653 323.042 170.693 323.042 172C323.042 173.493 322.749 174.72 322.162 175.68C321.576 176.64 320.776 177.347 319.762 177.8C318.776 178.253 317.629 178.48 316.322 178.48ZM337.288 178.48C334.808 178.48 332.982 177.6 331.808 175.84C330.662 174.053 330.088 171.267 330.088 167.48C330.088 163.693 330.675 160.92 331.848 159.16C333.022 157.373 334.835 156.48 337.288 156.48C339.582 156.48 341.222 157.187 342.208 158.6C343.222 160.013 343.728 162.067 343.728 164.76H340.328C340.328 162.947 340.115 161.6 339.688 160.72C339.262 159.84 338.462 159.4 337.288 159.4C335.982 159.4 335.022 160.013 334.408 161.24C333.822 162.467 333.528 164.293 333.528 166.72V168.24C333.528 170.667 333.822 172.493 334.408 173.72C335.022 174.947 335.982 175.56 337.288 175.56C338.462 175.56 339.288 175.107 339.768 174.2C340.248 173.267 340.488 171.933 340.488 170.2H343.728C343.728 171.667 343.515 173.027 343.088 174.28C342.662 175.533 341.968 176.547 341.008 177.32C340.075 178.093 338.835 178.48 337.288 178.48ZM358.175 178.48C355.721 178.48 353.855 177.6 352.575 175.84C351.295 174.053 350.655 171.267 350.655 167.48C350.655 163.693 351.295 160.92 352.575 159.16C353.855 157.373 355.721 156.48 358.175 156.48C360.628 156.48 362.495 157.373 363.775 159.16C365.055 160.92 365.695 163.693 365.695 167.48C365.695 171.267 365.055 174.053 363.775 175.84C362.495 177.6 360.628 178.48 358.175 178.48ZM358.175 175.56C359.535 175.56 360.548 174.947 361.215 173.72C361.908 172.493 362.255 170.667 362.255 168.24V166.72C362.255 164.293 361.908 162.467 361.215 161.24C360.548 160.013 359.535 159.4 358.175 159.4C356.815 159.4 355.788 160.013 355.095 161.24C354.428 162.467 354.095 164.293 354.095 166.72V168.24C354.095 170.667 354.428 172.493 355.095 173.72C355.788 174.947 356.815 175.56 358.175 175.56ZM355.855 154.36L359.295 149.08H362.895L362.935 149.2L358.615 154.36H355.855ZM373.697 184.92V156.96H376.177L376.617 159.4H376.817C377.324 158.44 377.977 157.72 378.777 157.24C379.577 156.733 380.457 156.48 381.417 156.48C383.417 156.48 385.004 157.36 386.177 159.12C387.35 160.853 387.937 163.653 387.937 167.52C387.937 170.053 387.657 172.133 387.097 173.76C386.537 175.387 385.777 176.587 384.817 177.36C383.884 178.107 382.83 178.48 381.657 178.48C380.644 178.48 379.737 178.28 378.937 177.88C378.137 177.453 377.55 176.88 377.177 176.16H376.977V184.92H373.697ZM380.737 175.56C381.99 175.56 382.924 175 383.537 173.88C384.177 172.733 384.497 170.853 384.497 168.24V166.72C384.497 164.107 384.177 162.24 383.537 161.12C382.924 159.973 381.99 159.4 380.737 159.4C379.484 159.4 378.537 160.013 377.897 161.24C377.284 162.467 376.977 164.293 376.977 166.72V168.24C376.977 170.667 377.284 172.493 377.897 173.72C378.537 174.947 379.484 175.56 380.737 175.56ZM396.459 178V156.96H399.739V178H396.459ZM396.379 152.88V149.08H399.779V152.88H396.379ZM415.281 178.48C412.801 178.48 410.974 177.6 409.801 175.84C408.654 174.053 408.081 171.267 408.081 167.48C408.081 163.693 408.667 160.92 409.841 159.16C411.014 157.373 412.827 156.48 415.281 156.48C417.574 156.48 419.214 157.187 420.201 158.6C421.214 160.013 421.721 162.067 421.721 164.76H418.321C418.321 162.947 418.107 161.6 417.681 160.72C417.254 159.84 416.454 159.4 415.281 159.4C413.974 159.4 413.014 160.013 412.401 161.24C411.814 162.467 411.521 164.293 411.521 166.72V168.24C411.521 170.667 411.814 172.493 412.401 173.72C413.014 174.947 413.974 175.56 415.281 175.56C416.454 175.56 417.281 175.107 417.761 174.2C418.241 173.267 418.481 171.933 418.481 170.2H421.721C421.721 171.667 421.507 173.027 421.081 174.28C420.654 175.533 419.961 176.547 419.001 177.32C418.067 178.093 416.827 178.48 415.281 178.48ZM433.927 178.48C433.42 178.48 432.847 178.4 432.207 178.24C431.567 178.107 430.954 177.84 430.367 177.44C429.807 177.013 429.34 176.413 428.967 175.64C428.594 174.867 428.407 173.84 428.407 172.56C428.407 170.613 428.86 169.147 429.767 168.16C430.7 167.147 431.967 166.453 433.567 166.08C435.194 165.707 437.02 165.52 439.047 165.52V162.8C439.047 161.787 438.82 160.973 438.367 160.36C437.94 159.72 437.06 159.4 435.727 159.4C434.5 159.4 433.647 159.76 433.167 160.48C432.714 161.173 432.487 161.92 432.487 162.72V163.2H429.247C429.22 163.067 429.207 162.933 429.207 162.8C429.207 162.667 429.207 162.507 429.207 162.32C429.207 160.4 429.834 158.947 431.087 157.96C432.367 156.973 433.994 156.48 435.967 156.48C438.1 156.48 439.687 157 440.727 158.04C441.794 159.053 442.327 160.493 442.327 162.36V174.16C442.327 174.667 442.447 175.027 442.687 175.24C442.927 175.453 443.18 175.56 443.447 175.56H444.727V177.84C444.54 177.947 444.26 178.053 443.887 178.16C443.54 178.267 443.1 178.32 442.567 178.32C441.714 178.32 440.994 178.08 440.407 177.6C439.847 177.12 439.46 176.493 439.247 175.72H439.047C438.514 176.573 437.794 177.253 436.887 177.76C436.007 178.24 435.02 178.48 433.927 178.48ZM434.687 175.56C435.38 175.56 436.06 175.373 436.727 175C437.394 174.6 437.94 174.013 438.367 173.24C438.82 172.467 439.047 171.507 439.047 170.36V168.44C437.607 168.44 436.34 168.547 435.247 168.76C434.18 168.947 433.34 169.32 432.727 169.88C432.14 170.44 431.847 171.267 431.847 172.36C431.847 173.56 432.087 174.4 432.567 174.88C433.074 175.333 433.78 175.56 434.687 175.56ZM470.511 178.48C468.511 178.48 466.924 177.613 465.751 175.88C464.577 174.12 463.991 171.307 463.991 167.44C463.991 164.88 464.271 162.8 464.831 161.2C465.391 159.573 466.151 158.387 467.111 157.64C468.071 156.867 469.124 156.48 470.271 156.48C471.284 156.48 472.191 156.707 472.991 157.16C473.817 157.587 474.404 158.187 474.751 158.96H474.951V149.08H478.231V178H475.751L475.311 175.56H475.111C474.604 176.52 473.951 177.253 473.151 177.76C472.351 178.24 471.471 178.48 470.511 178.48ZM471.191 175.56C472.444 175.56 473.377 174.947 473.991 173.72C474.631 172.493 474.951 170.667 474.951 168.24V166.88C474.951 164.4 474.631 162.533 473.991 161.28C473.377 160.027 472.444 159.4 471.191 159.4C469.937 159.4 468.991 159.973 468.351 161.12C467.737 162.24 467.431 164.107 467.431 166.72V168.24C467.431 170.853 467.737 172.733 468.351 173.88C468.991 175 469.937 175.56 471.191 175.56ZM494.273 178.48C491.659 178.48 489.673 177.627 488.313 175.92C486.979 174.187 486.313 171.373 486.313 167.48C486.313 163.693 486.966 160.92 488.273 159.16C489.606 157.373 491.593 156.48 494.233 156.48C496.526 156.48 498.246 157.253 499.393 158.8C500.566 160.32 501.153 162.84 501.153 166.36V168.44H489.753C489.779 170.893 490.166 172.693 490.913 173.84C491.659 174.987 492.806 175.56 494.353 175.56C495.393 175.56 496.246 175.147 496.913 174.32C497.579 173.467 497.913 172.307 497.913 170.84H501.153C501.153 173.187 500.513 175.053 499.233 176.44C497.979 177.8 496.326 178.48 494.273 178.48ZM489.793 165.52H497.713C497.713 163.52 497.419 162 496.833 160.96C496.246 159.92 495.379 159.4 494.233 159.4C492.766 159.4 491.686 159.92 490.993 160.96C490.326 161.973 489.926 163.493 489.793 165.52ZM532.737 178.48C529.377 178.48 526.737 177.307 524.817 174.96C522.897 172.587 521.937 169.027 521.937 164.28C521.937 159.507 522.897 155.947 524.817 153.6C526.737 151.253 529.377 150.08 532.737 150.08C536.097 150.08 538.737 151.253 540.657 153.6C542.577 155.947 543.537 159.507 543.537 164.28C543.537 169.027 542.577 172.587 540.657 174.96C538.737 177.307 536.097 178.48 532.737 178.48ZM532.737 175.24C534.95 175.24 536.683 174.413 537.937 172.76C539.217 171.107 539.857 168.613 539.857 165.28V163.28C539.857 159.947 539.217 157.453 537.937 155.8C536.683 154.147 534.95 153.32 532.737 153.32C530.55 153.32 528.817 154.147 527.537 155.8C526.257 157.453 525.617 159.947 525.617 163.28V165.28C525.617 168.613 526.257 171.107 527.537 172.76C528.817 174.413 530.55 175.24 532.737 175.24ZM552.404 178V156.96H555.684V178H552.404ZM551.724 154.36L555.164 149.08H558.764L558.804 149.2L554.484 154.36H551.724ZM570.706 178.48C568.706 178.48 567.119 177.613 565.946 175.88C564.773 174.12 564.186 171.307 564.186 167.44C564.186 164.88 564.466 162.8 565.026 161.2C565.586 159.573 566.346 158.387 567.306 157.64C568.266 156.867 569.319 156.48 570.466 156.48C571.479 156.48 572.386 156.707 573.186 157.16C574.013 157.587 574.599 158.187 574.946 158.96H575.146V149.08H578.426V178H575.946L575.506 175.56H575.306C574.799 176.52 574.146 177.253 573.346 177.76C572.546 178.24 571.666 178.48 570.706 178.48ZM571.386 175.56C572.639 175.56 573.573 174.947 574.186 173.72C574.826 172.493 575.146 170.667 575.146 168.24V166.88C575.146 164.4 574.826 162.533 574.186 161.28C573.573 160.027 572.639 159.4 571.386 159.4C570.133 159.4 569.186 159.973 568.546 161.12C567.933 162.24 567.626 164.107 567.626 166.72V168.24C567.626 170.853 567.933 172.733 568.546 173.88C569.186 175 570.133 175.56 571.386 175.56ZM593.948 178.48C591.495 178.48 589.628 177.6 588.348 175.84C587.068 174.053 586.428 171.267 586.428 167.48C586.428 163.693 587.068 160.92 588.348 159.16C589.628 157.373 591.495 156.48 593.948 156.48C596.401 156.48 598.268 157.373 599.548 159.16C600.828 160.92 601.468 163.693 601.468 167.48C601.468 171.267 600.828 174.053 599.548 175.84C598.268 177.6 596.401 178.48 593.948 178.48ZM593.948 175.56C595.308 175.56 596.321 174.947 596.988 173.72C597.681 172.493 598.028 170.667 598.028 168.24V166.72C598.028 164.293 597.681 162.467 596.988 161.24C596.321 160.013 595.308 159.4 593.948 159.4C592.588 159.4 591.561 160.013 590.868 161.24C590.201 162.467 589.868 164.293 589.868 166.72V168.24C589.868 170.667 590.201 172.493 590.868 173.72C591.561 174.947 592.588 175.56 593.948 175.56ZM629.812 178.48C627.199 178.48 625.212 177.627 623.852 175.92C622.519 174.187 621.852 171.373 621.852 167.48C621.852 163.693 622.505 160.92 623.812 159.16C625.145 157.373 627.132 156.48 629.772 156.48C632.065 156.48 633.785 157.253 634.932 158.8C636.105 160.32 636.692 162.84 636.692 166.36V168.44H625.292C625.319 170.893 625.705 172.693 626.452 173.84C627.199 174.987 628.345 175.56 629.892 175.56C630.932 175.56 631.785 175.147 632.452 174.32C633.119 173.467 633.452 172.307 633.452 170.84H636.692C636.692 173.187 636.052 175.053 634.772 176.44C633.519 177.8 631.865 178.48 629.812 178.48ZM625.332 165.52H633.252C633.252 163.52 632.959 162 632.372 160.96C631.785 159.92 630.919 159.4 629.772 159.4C628.305 159.4 627.225 159.92 626.532 160.96C625.865 161.973 625.465 163.493 625.332 165.52ZM658.316 178V150.56H661.836V178H658.316ZM671.017 178V156.96H673.497L673.937 159.4H674.177C674.764 158.36 675.497 157.613 676.377 157.16C677.257 156.707 678.217 156.48 679.257 156.48C680.831 156.48 682.084 156.96 683.017 157.92C683.977 158.853 684.457 160.493 684.457 162.84V178H681.177V163.08C681.177 161.613 680.897 160.64 680.337 160.16C679.804 159.653 679.097 159.4 678.217 159.4C677.177 159.4 676.257 159.907 675.457 160.92C674.684 161.933 674.297 163.347 674.297 165.16V178H671.017ZM697.299 178L691.259 156.96H694.859L697.699 167.64C697.833 168.067 697.953 168.507 698.059 168.96C698.193 169.413 698.313 169.867 698.419 170.32C698.553 170.747 698.673 171.187 698.779 171.64C698.913 172.067 699.033 172.507 699.139 172.96H699.299C699.433 172.507 699.553 172.053 699.659 171.6C699.793 171.147 699.913 170.693 700.019 170.24C700.153 169.787 700.273 169.333 700.379 168.88C700.513 168.427 700.633 167.973 700.739 167.52L703.579 156.96H706.899L700.859 178H697.299ZM720.906 178.48C718.292 178.48 716.306 177.627 714.946 175.92C713.612 174.187 712.946 171.373 712.946 167.48C712.946 163.693 713.599 160.92 714.906 159.16C716.239 157.373 718.226 156.48 720.866 156.48C723.159 156.48 724.879 157.253 726.026 158.8C727.199 160.32 727.786 162.84 727.786 166.36V168.44H716.386C716.412 170.893 716.799 172.693 717.546 173.84C718.292 174.987 719.439 175.56 720.986 175.56C722.026 175.56 722.879 175.147 723.546 174.32C724.212 173.467 724.546 172.307 724.546 170.84H727.786C727.786 173.187 727.146 175.053 725.866 176.44C724.612 177.8 722.959 178.48 720.906 178.48ZM716.426 165.52H724.346C724.346 163.52 724.052 162 723.466 160.96C722.879 159.92 722.012 159.4 720.866 159.4C719.399 159.4 718.319 159.92 717.626 160.96C716.959 161.973 716.559 163.493 716.426 165.52ZM741.588 178.48C739.988 178.48 738.681 178.187 737.668 177.6C736.681 176.987 735.961 176.213 735.508 175.28C735.054 174.347 734.828 173.36 734.828 172.32C734.828 172.027 734.828 171.813 734.828 171.68C734.854 171.547 734.868 171.467 734.868 171.44H738.308V171.84C738.308 173.147 738.641 174.107 739.308 174.72C739.974 175.307 740.788 175.6 741.748 175.6C742.601 175.6 743.334 175.333 743.948 174.8C744.588 174.267 744.908 173.493 744.908 172.48C744.908 171.6 744.668 170.92 744.188 170.44C743.734 169.933 743.148 169.533 742.428 169.24C741.708 168.92 740.934 168.627 740.108 168.36C739.281 168.067 738.508 167.707 737.788 167.28C737.068 166.853 736.468 166.267 735.988 165.52C735.534 164.747 735.308 163.733 735.308 162.48C735.308 161.227 735.574 160.16 736.108 159.28C736.641 158.373 737.401 157.68 738.388 157.2C739.374 156.72 740.534 156.48 741.868 156.48C743.174 156.48 744.268 156.747 745.148 157.28C746.054 157.787 746.734 158.48 747.188 159.36C747.668 160.24 747.908 161.2 747.908 162.24C747.908 162.373 747.894 162.52 747.868 162.68C747.868 162.84 747.868 162.947 747.868 163H744.468V162.64C744.468 161.813 744.254 161.067 743.828 160.4C743.428 159.707 742.668 159.36 741.548 159.36C740.774 159.36 740.174 159.52 739.748 159.84C739.348 160.16 739.068 160.547 738.908 161C738.774 161.427 738.708 161.84 738.708 162.24C738.708 163.013 738.934 163.613 739.388 164.04C739.868 164.467 740.468 164.813 741.188 165.08C741.908 165.347 742.681 165.627 743.508 165.92C744.334 166.187 745.108 166.547 745.828 167C746.548 167.453 747.134 168.08 747.588 168.88C748.068 169.653 748.308 170.693 748.308 172C748.308 173.493 748.014 174.72 747.428 175.68C746.841 176.64 746.041 177.347 745.028 177.8C744.041 178.253 742.894 178.48 741.588 178.48ZM760.034 178.4C759.074 178.4 758.314 178.16 757.754 177.68C757.221 177.2 756.834 176.6 756.594 175.88C756.381 175.133 756.274 174.36 756.274 173.56V159.88H754.474V156.96H756.274L756.994 151.12H759.554V156.96H762.394V159.88H759.554V173.64C759.554 174.92 760.181 175.56 761.434 175.56H762.394V177.84C762.127 178 761.767 178.133 761.314 178.24C760.861 178.347 760.434 178.4 760.034 178.4ZM769.936 178V156.96H773.216V178H769.936ZM769.856 152.88V149.08H773.256V152.88H769.856ZM785.837 185.28C784.131 185.28 782.837 184.787 781.957 183.8C781.077 182.84 780.637 181.667 780.637 180.28C780.637 179.267 780.877 178.347 781.357 177.52C781.864 176.693 782.531 176.12 783.357 175.8C782.824 175.453 782.397 175 782.077 174.44C781.784 173.853 781.637 173.253 781.637 172.64C781.637 171.787 781.904 171.053 782.437 170.44C782.997 169.8 783.717 169.32 784.597 169C783.851 168.387 783.251 167.627 782.797 166.72C782.371 165.787 782.157 164.733 782.157 163.56C782.157 161.347 782.771 159.613 783.997 158.36C785.224 157.107 786.904 156.48 789.037 156.48C790.131 156.48 791.144 156.733 792.077 157.24C793.011 156.733 793.651 156.16 793.997 155.52C794.344 154.88 794.571 154.227 794.677 153.56H797.557C797.557 154.813 797.237 155.893 796.597 156.8C795.984 157.707 795.131 158.307 794.037 158.6C794.624 159.187 795.077 159.907 795.397 160.76C795.744 161.587 795.917 162.52 795.917 163.56C795.917 165.747 795.304 167.467 794.077 168.72C792.877 169.973 791.251 170.613 789.197 170.64H786.997C786.464 170.64 786.011 170.827 785.637 171.2C785.264 171.547 785.077 171.987 785.077 172.52C785.077 173.027 785.264 173.467 785.637 173.84C786.037 174.213 786.491 174.4 786.997 174.4H792.997C794.517 174.4 795.717 174.893 796.597 175.88C797.504 176.84 797.957 177.987 797.957 179.32C797.957 180.413 797.717 181.413 797.237 182.32C796.784 183.227 796.091 183.947 795.157 184.48C794.251 185.013 793.131 185.28 791.797 185.28H785.837ZM786.357 182.44H792.157C792.851 182.44 793.437 182.187 793.917 181.68C794.397 181.2 794.637 180.627 794.637 179.96C794.637 179.267 794.437 178.68 794.037 178.2C793.637 177.747 793.011 177.52 792.157 177.52H786.357C785.531 177.52 784.917 177.747 784.517 178.2C784.117 178.68 783.917 179.267 783.917 179.96C783.917 180.627 784.117 181.2 784.517 181.68C784.917 182.187 785.531 182.44 786.357 182.44ZM788.997 167.92C790.171 167.92 791.064 167.533 791.677 166.76C792.291 165.96 792.597 164.893 792.597 163.56C792.597 162.147 792.291 161.067 791.677 160.32C791.064 159.573 790.171 159.2 788.997 159.2C787.851 159.2 786.971 159.6 786.357 160.4C785.744 161.173 785.437 162.227 785.437 163.56C785.437 164.947 785.744 166.027 786.357 166.8C786.971 167.547 787.851 167.92 788.997 167.92ZM809.239 178.48C808.733 178.48 808.159 178.4 807.519 178.24C806.879 178.107 806.266 177.84 805.679 177.44C805.119 177.013 804.653 176.413 804.279 175.64C803.906 174.867 803.719 173.84 803.719 172.56C803.719 170.613 804.173 169.147 805.079 168.16C806.013 167.147 807.279 166.453 808.879 166.08C810.506 165.707 812.333 165.52 814.359 165.52V162.8C814.359 161.787 814.133 160.973 813.679 160.36C813.253 159.72 812.373 159.4 811.039 159.4C809.813 159.4 808.959 159.76 808.479 160.48C808.026 161.173 807.799 161.92 807.799 162.72V163.2H804.559C804.533 163.067 804.519 162.933 804.519 162.8C804.519 162.667 804.519 162.507 804.519 162.32C804.519 160.4 805.146 158.947 806.399 157.96C807.679 156.973 809.306 156.48 811.279 156.48C813.413 156.48 814.999 157 816.039 158.04C817.106 159.053 817.639 160.493 817.639 162.36V174.16C817.639 174.667 817.759 175.027 817.999 175.24C818.239 175.453 818.493 175.56 818.759 175.56H820.039V177.84C819.853 177.947 819.573 178.053 819.199 178.16C818.853 178.267 818.413 178.32 817.879 178.32C817.026 178.32 816.306 178.08 815.719 177.6C815.159 177.12 814.773 176.493 814.559 175.72H814.359C813.826 176.573 813.106 177.253 812.199 177.76C811.319 178.24 810.333 178.48 809.239 178.48ZM809.999 175.56C810.693 175.56 811.373 175.373 812.039 175C812.706 174.6 813.253 174.013 813.679 173.24C814.133 172.467 814.359 171.507 814.359 170.36V168.44C812.919 168.44 811.653 168.547 810.559 168.76C809.493 168.947 808.653 169.32 808.039 169.88C807.453 170.44 807.159 171.267 807.159 172.36C807.159 173.56 807.399 174.4 807.879 174.88C808.386 175.333 809.093 175.56 809.999 175.56ZM833.242 178.48C830.762 178.48 828.935 177.6 827.762 175.84C826.615 174.053 826.042 171.267 826.042 167.48C826.042 163.693 826.628 160.92 827.802 159.16C828.975 157.373 830.788 156.48 833.242 156.48C835.535 156.48 837.175 157.187 838.162 158.6C839.175 160.013 839.682 162.067 839.682 164.76H836.282C836.282 162.947 836.068 161.6 835.642 160.72C835.215 159.84 834.415 159.4 833.242 159.4C831.935 159.4 830.975 160.013 830.362 161.24C829.775 162.467 829.482 164.293 829.482 166.72V168.24C829.482 170.667 829.775 172.493 830.362 173.72C830.975 174.947 831.935 175.56 833.242 175.56C834.415 175.56 835.242 175.107 835.722 174.2C836.202 173.267 836.442 171.933 836.442 170.2H839.682C839.682 171.667 839.468 173.027 839.042 174.28C838.615 175.533 837.922 176.547 836.962 177.32C836.028 178.093 834.788 178.48 833.242 178.48ZM847.928 178V156.96H851.208V178H847.928ZM847.848 152.88V149.08H851.248V152.88H847.848ZM867.229 178.48C864.776 178.48 862.909 177.6 861.629 175.84C860.349 174.053 859.709 171.267 859.709 167.48C859.709 163.693 860.349 160.92 861.629 159.16C862.909 157.373 864.776 156.48 867.229 156.48C869.683 156.48 871.549 157.373 872.829 159.16C874.109 160.92 874.749 163.693 874.749 167.48C874.749 171.267 874.109 174.053 872.829 175.84C871.549 177.6 869.683 178.48 867.229 178.48ZM867.229 175.56C868.589 175.56 869.603 174.947 870.269 173.72C870.963 172.493 871.309 170.667 871.309 168.24V166.72C871.309 164.293 870.963 162.467 870.269 161.24C869.603 160.013 868.589 159.4 867.229 159.4C865.869 159.4 864.843 160.013 864.149 161.24C863.483 162.467 863.149 164.293 863.149 166.72V168.24C863.149 170.667 863.483 172.493 864.149 173.72C864.843 174.947 865.869 175.56 867.229 175.56ZM864.909 154.36L868.349 149.08H871.949L871.989 149.2L867.669 154.36H864.909ZM882.752 178V156.96H885.232L885.672 159.4H885.912C886.498 158.36 887.232 157.613 888.112 157.16C888.992 156.707 889.952 156.48 890.992 156.48C892.565 156.48 893.818 156.96 894.752 157.92C895.712 158.853 896.192 160.493 896.192 162.84V178H892.912V163.08C892.912 161.613 892.632 160.64 892.072 160.16C891.538 159.653 890.832 159.4 889.952 159.4C888.912 159.4 887.992 159.907 887.192 160.92C886.418 161.933 886.032 163.347 886.032 165.16V178H882.752Z" fill="black"/>
</g>
<defs>
<clipPath id="clip0_24_26">
<rect width="900.005" height="191" fill="white"/>
</clipPath>
</defs>
</svg>
